# xmcd
# 
# Track frame offsets:
#     150
#     21370
#     42982
#     61400
#     83832
#     105595
#     126937
#     144907
#     166480
#     188397
# 
# Disc length: 2810
# 
# Revision: 2
# Processed by: cddbd v1.5.2PL0 Copyright (c) Steve Scherf et al.
# Submitted via: BonkEnc v1.0.5
# 
DISCID=7e0af80a
DTITLE=丸山みゆき - SUGAR TIME
DYEAR=1990
DGENRE=Pop
TTITLE0=FIRE
TTITLE1=2月はあなたに似ている
TTITLE2=ひとり-ALONE-
TTITLE3=シュガー・タイム
TTITLE4=夏のゆくえ 冬のゆくえ
TTITLE5=Teaps
TTITLE6=風に消えた自転車
TTITLE7=春の駅
TTITLE8=東京タワーから見えた
TTITLE9=翼WIND BENEATH MY WINGS
EXTD=
EXTT0=
EXTT1=
EXTT2=
EXTT3=
EXTT4=
EXTT5=
EXTT6=
EXTT7=
EXTT8=
EXTT9=
PLAYORDER=
